<svg width="150px" height="34px" xmlns="http://www.w3.org/2000/svg" fill="none" viewBox="0.3 0.88 877.87 144.78" data-v-7e2ed268=""><path fill="#222" fill-rule="evenodd" d="M238.842 5.365h12l53.147 128.508h.383L356.945 5.365h12.007v137.978h-8.382V15.8h-.379l-51.823 127.543h-8.381L247.603 15.8h-.38v127.543h-8.381V5.365Zm144.976 82.902c1.526-19.712 14.289-40.196 36.002-40.196 22.482 0 35.43 19.325 35.816 40.196h-71.818Zm79.054 6.375c1.334-28.405-12.384-52.947-43.052-52.947-29.523 0-43.626 26.475-43.24 53.72-.386 27.44 14.668 50.246 43.24 50.246 23.238 0 38.478-12.753 42.295-35.945h-7.245c-3.427 18.358-16.571 29.567-35.05 29.567-24.189 0-36.385-21.255-36.002-44.641h79.054Zm84.961-19.902c-1.334-17.588-15.428-26.67-33.145-26.67-24.572 0-37.716 22.03-37.716 44.642 0 26.86 12.378 46.571 37.716 46.571 18.285 0 31.623-12.753 34.096-30.917h7.242c-3.24 23.765-20.193 37.295-41.338 37.295-31.811 0-44.961-25.315-44.961-52.949 0-27.637 16.007-51.017 44.961-51.017 21.145 0 38.287 10.432 40.384 33.045h-7.239Zm22.785 13.527c1.519-19.712 14.283-40.196 36.005-40.196 22.479 0 35.43 19.325 35.807 40.196h-71.812Zm79.054 6.375c1.337-28.405-12.377-52.947-43.049-52.947-29.529 0-43.626 26.475-43.247 53.72-.379 27.44 14.669 50.246 43.247 50.246 23.241 0 38.478-12.753 42.283-35.945h-7.239c-3.428 18.358-16.568 29.567-35.044 29.567-24.196 0-36.385-21.255-36.005-44.641h79.054Zm10.289-50.628h7.233v21.258h.376c4.957-14.883 19.817-23.577 35.06-23.577 34.48 0 34.856 28.016 34.856 40.193v61.455h-7.232V80.538c0-10.244-1.143-32.467-27.812-32.467-21.91 0-35.248 17.201-35.248 41.549v53.723h-7.233v-99.33Zm155.736 61.455c0 5.212-3.622 33.814-36.579 33.814-17.146 0-25.718-9.664-25.718-21.641 0-14.883 9.715-21.067 26.86-23 14.101-1.93 29.718-1.156 35.437-7.729v18.556Zm7.232-37.882c0-20.481-17.135-25.892-34.287-25.892-23.044 0-36.385 11.015-37.33 32.85h7.233c.954-17.199 12.575-26.474 30.097-26.474 22.29 0 27.237 15.074 27.237 19.516 0 16.234-1.324 18.361-33.713 20.68-16.191 1.353-36.005 6.184-36.005 29.375 0 20.864 14.283 28.019 32.769 28.019 18.664 0 31.814-10.244 36.381-22.032h.386v5.219c0 8.117 1.711 14.495 13.143 14.495 1.899 0 3.811-.388 5.902-.777v-6.184c-2.279.392-4.003.583-5.327.583-6.486 0-6.486-6.184-6.486-11.983V67.587Zm55.248-17.198h-21.336v69.377c0 16.04 7.43 17.584 21.144 17.199v6.378c-14.857.968-29.143-1.159-28.386-23.577V50.389h-18.087v-6.375h18.087v-30.92h7.242v30.92h21.336v6.375Z" clip-rule="evenodd"></path><path fill="#10A5C5" fill-rule="evenodd" d="M142.758 78.272h30.132c1.241 0 2.285-1.065 2.285-2.328V5.29h-8.844c-.003 0 0 53.075 0 64.01H152.08V5.29h-8.879l.019 70.663c0 .822-.197 1.59-.462 2.318Z" clip-rule="evenodd"></path><path fill="#10A5C5" fill-rule="evenodd" d="M179.599 5.29v70.654c0 3.756-3.01 6.815-6.709 6.815l-72.61.023H15.849c-3.693 0-6.7-3.053-6.7-6.806V16.678c0-3.753 3.007-6.803 6.7-6.803l84.466-.013c3.693 0 6.7 3.06 6.7 6.816v59.308c0 .813-.198 1.567-.457 2.286h29.973c1.248 0 2.266-1.04 2.266-2.318l-.019-70.663h-8.812V69.3h-14.117V16.648c0-8.7-6.983-15.771-15.569-15.771H15.849C7.276.878.302 7.948.302 16.648v59.296c0 8.7 6.974 15.78 15.547 15.78l157.05.013c8.573 0 15.547-7.077 15.547-15.77V5.29h-8.847Z" clip-rule="evenodd"></path><path fill="#10A5C5" fill-rule="evenodd" d="M15.849 14.36c-1.255 0-2.276 1.042-2.276 2.318v59.298c0 1.28 1.021 2.319 2.276 2.319h79.727v-.023h4.806a2.283 2.283 0 0 0 1.421-.612c.028-.03.076-.02.102-.049a2.31 2.31 0 0 0 .673-1.635h.013V16.678c0-1.263-1.044-2.328-2.276-2.328l-84.466.01Zm77.885 54.93H22.417V23.312h71.317V69.29Z" clip-rule="evenodd"></path></svg>
