<svg xmlns="http://www.w3.org/2000/svg" viewBox="0 0 1016.33 156.84" fill="#FFFFFF"><path d="M149 83.78a40.85 40.85 0 0 0-8.14-8.8A49.52 49.52 0 0 0 121 65.35a51.24 51.24 0 0 0-9.74-1.26H45.6q-8.1 0-12.63-4.75-4.53-4.75-4.54-13 0-8.1 4.54-13 4.54-4.9 12.63-4.92h85.46a11.34 11.34 0 0 0 11.34-11.32V0H45.6a50.8 50.8 0 0 0-14.88 2.46A43.63 43.63 0 0 0 4.54 24.77Q0 33.58 0 46.38 0 59.18 4.54 68a43.29 43.29 0 0 0 11.37 14.36 44.59 44.59 0 0 0 14.82 7.93 50.8 50.8 0 0 0 14.88 2.46H111a18.94 18.94 0 0 1 7.16 1.31 15.36 15.36 0 0 1 5.47 3.72 16.71 16.71 0 0 1 3.44 5.69 20.64 20.64 0 0 1 1.21 7.22c0 5.4-1.52 9.7-4.54 12.9s-7.28 4.82-12.74 4.82H12.65a11.34 11.34 0 0 0-11.34 11.33v17.1H111a47.45 47.45 0 0 0 9.78-1.09 48.71 48.71 0 0 0 10.22-3.39 50.38 50.38 0 0 0 9.74-5.91 37.66 37.66 0 0 0 8.2-8.75 45.2 45.2 0 0 0 5.63-11.86 50.14 50.14 0 0 0 2.13-15.15 50.91 50.91 0 0 0-2.07-15.1A43.48 43.48 0 0 0 149 83.78zm10.8-72.44v17.1h62.8v128.4H251V28.44h51.34a11.34 11.34 0 0 0 11.34-11.34V0H171.13a11.34 11.34 0 0 0-11.34 11.34zM459.1 128.4h-50q-1.3 0-5.52-.4a55.53 55.53 0 0 1-9.73-1.91 60.85 60.85 0 0 1-11.65-4.7 41 41 0 0 1-11.27-8.75 44.84 44.84 0 0 1-8.47-13.89q-3.35-8.3-3.34-20.35V0H330.7v78.42a89.06 89.06 0 0 0 3.28 25 73.18 73.18 0 0 0 9 19.91 68 68 0 0 0 13.4 15 76.74 76.74 0 0 0 16.35 10.44 81.69 81.69 0 0 0 18 6.08 88.65 88.65 0 0 0 18.37 2h67.1a11.34 11.34 0 0 0 11.34-11.33V0H459.1zM628.68 0h-32.13a19.9 19.9 0 0 0-14 5.82L524.33 64.1h-20v28.66h20L582.5 151a19.86 19.86 0 0 0 14 5.82h32.13l-80.56-78.4zm41.62 142.73a13.52 13.52 0 0 1-1.15 5.53 15 15 0 0 1-3.06 4.48 14.12 14.12 0 0 1-4.49 3 13.66 13.66 0 0 1-5.41 1.09 14 14 0 0 1-14.11-14.11 13.66 13.66 0 0 1 1.09-5.41 14 14 0 0 1 3-4.48 14.81 14.81 0 0 1 4.48-3.07 13.52 13.52 0 0 1 5.53-1.15 13.21 13.21 0 0 1 5.41 1.15 14.69 14.69 0 0 1 7.55 7.55 13.21 13.21 0 0 1 1.16 5.42zm156.8 14.1H724.5a42.32 42.32 0 0 1-8.48-.93 43.58 43.58 0 0 1-9-2.89 41.93 41.93 0 0 1-8.48-5.09 34.62 34.62 0 0 1-7.16-7.55 37.35 37.35 0 0 1-5-10.28 43.4 43.4 0 0 1-1.86-13.18v-77a42.3 42.3 0 0 1 .93-8.47 43.61 43.61 0 0 1 2.9-9 40.17 40.17 0 0 1 5.19-8.45 35.55 35.55 0 0 1 7.6-7.16 37.59 37.59 0 0 1 10.23-5A42.88 42.88 0 0 1 724.52 0h102.6v17.1a11.34 11.34 0 0 1-11.34 11.33h-91.25q-5.58 0-8.54 2.95c-2 2-3 4.9-3 8.75v76.78c0 3.65 1 6.47 3 8.48s4.83 3 8.48 3h91.25a11.33 11.33 0 0 1 11.34 11.32zM1016.33 93a65.5 65.5 0 0 1-4.92 25.64 60.61 60.61 0 0 1-13.68 20.22A62.05 62.05 0 0 1 977 152.11a70.49 70.49 0 0 1-26.09 4.73h-38.5a70.91 70.91 0 0 1-26.14-4.73 60.77 60.77 0 0 1-34.51-33.47 64.81 64.81 0 0 1-5-25.64V63.84a64.94 64.94 0 0 1 5-25.59A60.78 60.78 0 0 1 865.5 18a63 63 0 0 1 20.78-13.21A70.12 70.12 0 0 1 912.42 0h38.5A69.71 69.71 0 0 1 977 4.79 63.16 63.16 0 0 1 997.73 18a60.07 60.07 0 0 1 13.68 20.21 65.64 65.64 0 0 1 4.92 25.59zM987.9 63.84A39.3 39.3 0 0 0 985.21 49a32.8 32.8 0 0 0-7.55-11.39A33.88 33.88 0 0 0 966 30.27a42.07 42.07 0 0 0-15-2.6h-38.5a42.41 42.41 0 0 0-15.15 2.6 34.58 34.58 0 0 0-11.75 7.34A32.39 32.39 0 0 0 877.91 49a39.5 39.5 0 0 0-2.68 14.84V93a39.5 39.5 0 0 0 2.68 14.84 32.3 32.3 0 0 0 7.61 11.39 34.42 34.42 0 0 0 11.75 7.34 42.19 42.19 0 0 0 15.15 2.61h38.28a42.19 42.19 0 0 0 15.15-2.61 34.37 34.37 0 0 0 11.76-7.34 32.41 32.41 0 0 0 7.6-11.39A39.3 39.3 0 0 0 987.89 93z"/></svg>